<svg width="22" height="20" viewBox="0 0 22 20" fill="none" xmlns="http://www.w3.org/2000/svg">
<path d="M17.7433 5.89878V3.9061H15.7367V2.51585H17.7433V0.5H19.1433V2.51585H21.1733V3.9061H19.1433V5.89878H17.7433ZM1.90001 19.1988C1.71664 19.1994 1.53509 19.1627 1.36654 19.091C1.198 19.0192 1.04603 18.914 0.920007 18.7817C0.786808 18.6566 0.680827 18.5057 0.608594 18.3383C0.536361 18.1709 0.499406 17.9906 0.500007 17.8085V5.92195C0.501735 5.74193 0.539794 5.56408 0.611933 5.39892C0.684073 5.23375 0.788829 5.08463 0.920007 4.96037C1.04436 4.82517 1.19574 4.71722 1.36449 4.64341C1.53323 4.5696 1.71562 4.53156 1.90001 4.53171H5.33001L7.03334 2.51585H13.5667V3.9061H7.68667L5.98334 5.92195H1.90001V17.8085H17.7667V8.07683H19.1667V17.8085C19.1668 17.9916 19.1285 18.1728 19.0542 18.3403C18.9799 18.5079 18.8711 18.6582 18.735 18.7817C18.6099 18.912 18.4597 19.016 18.2934 19.0876C18.1271 19.1593 17.948 19.1971 17.7667 19.1988H1.90001ZM9.83334 15.8159C10.3585 15.8241 10.88 15.727 11.3665 15.5305C11.853 15.334 12.2947 15.0421 12.665 14.6722C13.0353 14.3023 13.3267 13.8621 13.5217 13.3778C13.7167 12.8935 13.8114 12.3751 13.8 11.8537C13.813 11.3352 13.7182 10.8197 13.5215 10.3393C13.3248 9.85884 13.0304 9.42389 12.6567 9.06159C12.2874 8.69396 11.8467 8.40476 11.3613 8.21158C10.8759 8.01839 10.3561 7.92524 9.83334 7.93781C9.31071 7.92436 8.79077 8.01628 8.30493 8.20801C7.81909 8.39974 7.37744 8.68731 7.00667 9.05332C6.63591 9.41934 6.34373 9.8562 6.14779 10.3375C5.95185 10.8188 5.85621 11.3346 5.86667 11.8537C5.8525 12.3764 5.9455 12.8966 6.14005 13.3825C6.33459 13.8685 6.6266 14.3101 6.99834 14.6805C7.36695 15.053 7.80894 15.3461 8.29671 15.5415C8.78449 15.7368 9.30759 15.8302 9.83334 15.8159ZM9.83334 14.4256C9.49201 14.4368 9.15203 14.3777 8.8348 14.2521C8.51757 14.1265 8.22994 13.9371 7.99 13.6957C7.75054 13.453 7.56302 13.1647 7.43871 12.8481C7.3144 12.5316 7.25588 12.1933 7.26667 11.8537C7.25665 11.5193 7.31566 11.1865 7.44006 10.8757C7.56446 10.5649 7.75161 10.2826 7.99 10.0463C8.23169 9.80811 8.51989 9.62149 8.83689 9.49796C9.1539 9.37444 9.493 9.31661 9.83334 9.32805C10.1717 9.31879 10.5084 9.37767 10.8232 9.50111C11.138 9.62456 11.4243 9.81003 11.665 10.0463C11.9065 10.2809 12.0965 10.5626 12.223 10.8736C12.3495 11.1847 12.4097 11.5183 12.4 11.8537C12.4106 12.1943 12.3508 12.5334 12.2244 12.8502C12.098 13.167 11.9076 13.4547 11.665 13.6957C11.426 13.9351 11.1403 14.1234 10.8252 14.2489C10.5102 14.3744 10.1727 14.4346 9.83334 14.4256Z" fill="#FF6700"/>
</svg>
